<svg id="Lager_1" data-name="Lager 1" xmlns="http://www.w3.org/2000/svg" viewBox="0 0 280 24.21"><defs><style>.cls-1{fill:#f28e24;}.cls-2{fill:#6f7072;}</style></defs><title>ca_basic_logo</title><rect class="cls-1" y="4.97" width="4.21" height="4.21"/><rect class="cls-1" y="10.01" width="4.21" height="4.21"/><rect class="cls-1" y="14.98" width="4.21" height="4.21"/><rect class="cls-1" x="4.97" width="4.21" height="4.21"/><rect class="cls-1" x="4.97" y="4.97" width="4.21" height="4.21"/><rect class="cls-1" x="4.97" y="10.01" width="4.21" height="4.21"/><rect class="cls-1" x="4.97" y="14.98" width="4.21" height="4.21"/><rect class="cls-1" x="4.97" y="19.95" width="4.21" height="4.21"/><rect class="cls-1" x="9.93" width="4.21" height="4.21"/><rect class="cls-1" x="9.93" y="19.95" width="4.21" height="4.21"/><rect class="cls-1" x="14.9" width="4.22" height="4.21"/><rect class="cls-1" x="14.9" y="19.95" width="4.22" height="4.21"/><rect class="cls-1" x="19.95" width="4.21" height="4.21"/><rect class="cls-1" x="19.95" y="19.95" width="4.21" height="4.21"/><rect class="cls-1" x="24.91" width="4.22" height="4.21"/><rect class="cls-1" x="24.91" y="4.97" width="4.22" height="4.21"/><rect class="cls-1" x="24.91" y="14.98" width="4.22" height="4.21"/><rect class="cls-1" x="24.91" y="19.95" width="4.22" height="4.21"/><rect class="cls-1" x="29.88" y="4.97" width="4.22" height="4.21"/><rect class="cls-1" x="29.88" y="14.98" width="4.22" height="4.21"/><rect class="cls-1" x="34.96" y="0.05" width="4.21" height="4.21"/><rect class="cls-1" x="34.96" y="10.06" width="4.21" height="4.21"/><rect class="cls-1" x="34.96" y="15.03" width="4.21" height="4.21"/><rect class="cls-1" x="34.96" y="20" width="4.21" height="4.21"/><rect class="cls-1" x="39.93" y="0.05" width="4.21" height="4.21"/><rect class="cls-1" x="39.93" y="10.06" width="4.21" height="4.21"/><rect class="cls-1" x="39.93" y="20" width="4.21" height="4.21"/><rect class="cls-1" x="44.9" y="0.05" width="4.22" height="4.21"/><rect class="cls-1" x="44.9" y="10.06" width="4.22" height="4.21"/><rect class="cls-1" x="44.9" y="20" width="4.22" height="4.21"/><rect class="cls-1" x="49.94" y="0.05" width="4.21" height="4.21"/><rect class="cls-1" x="49.94" y="10.06" width="4.21" height="4.21"/><rect class="cls-1" x="49.94" y="20" width="4.21" height="4.21"/><rect class="cls-1" x="54.91" y="0.05" width="4.22" height="4.21"/><rect class="cls-1" x="54.91" y="5.02" width="4.22" height="4.21"/><rect class="cls-1" x="54.91" y="10.06" width="4.22" height="4.21"/><rect class="cls-1" x="54.91" y="15.03" width="4.22" height="4.21"/><rect class="cls-1" x="54.91" y="20" width="4.22" height="4.21"/><rect class="cls-1" x="59.87" y="5.02" width="4.22" height="4.21"/><rect class="cls-1" x="59.87" y="10.06" width="4.22" height="4.21"/><rect class="cls-1" x="59.87" y="15.03" width="4.22" height="4.21"/><path class="cls-2" d="M86,29.52a7.9,7.9,0,0,1-3.21-.65,8,8,0,0,1-2.56-1.79,8.34,8.34,0,0,1-1.7-2.68A8.84,8.84,0,0,1,78,21.1v-.05a8.94,8.94,0,0,1,.6-3.29,8.26,8.26,0,0,1,1.7-2.69,7.94,7.94,0,0,1,5.9-2.5,10.08,10.08,0,0,1,2,.19,7.88,7.88,0,0,1,1.64.53,7.25,7.25,0,0,1,1.38.81,9.84,9.84,0,0,1,1.21,1l-1.79,2.13a9.25,9.25,0,0,0-2-1.48,5.18,5.18,0,0,0-2.43-.56,4.74,4.74,0,0,0-2.09.46,5.1,5.1,0,0,0-1.67,1.24,5.41,5.41,0,0,0-1.08,1.83A6.49,6.49,0,0,0,80.89,21v.05a6.55,6.55,0,0,0,.39,2.26,5.55,5.55,0,0,0,1.08,1.86A5.13,5.13,0,0,0,84,26.42a4.74,4.74,0,0,0,2.09.46,5,5,0,0,0,2.5-.58,10,10,0,0,0,2.06-1.55l1.79,1.87a12,12,0,0,1-1.28,1.21,9,9,0,0,1-1.44.91,6.87,6.87,0,0,1-1.69.58A9.13,9.13,0,0,1,86,29.52Z" transform="translate(-4.85 -5.53)"/><path class="cls-2" d="M95.37,12.86h7.07a7.48,7.48,0,0,1,2.65.43,5.45,5.45,0,0,1,1.93,1.2,5,5,0,0,1,1,1.57,5.43,5.43,0,0,1,.34,2v0a5.68,5.68,0,0,1-.28,1.81,4.73,4.73,0,0,1-.79,1.43,4.63,4.63,0,0,1-1.19,1.05,6,6,0,0,1-1.52.67l4.28,6.2h-3.29l-3.91-5.71h-3.5v5.71H95.37ZM102.22,21a3.63,3.63,0,0,0,2.39-.74,2.5,2.5,0,0,0,.89-2v-.05a2.44,2.44,0,0,0-.87-2,3.78,3.78,0,0,0-2.43-.7H98.13V21Z" transform="translate(-4.85 -5.53)"/><path class="cls-2" d="M117.37,12.74H120l7,16.5H124l-1.61-3.95h-7.5l-1.63,3.95h-2.86Zm4,10-2.74-6.55-2.72,6.55Z" transform="translate(-4.85 -5.53)"/><path class="cls-2" d="M129.65,12.86h11.78v2.59h-9V20h8v2.6h-8v6.67h-2.76Z" transform="translate(-4.85 -5.53)"/><path class="cls-2" d="M148.41,15.52h-5V12.86h12.87v2.66h-5V29.24h-2.81Z" transform="translate(-4.85 -5.53)"/><path class="cls-2" d="M171.61,12.74h2.58l7,16.5h-2.94l-1.61-3.95h-7.5l-1.63,3.95h-2.86Zm4,10-2.74-6.55-2.72,6.55Z" transform="translate(-4.85 -5.53)"/><path class="cls-2" d="M191.28,29.52a7.92,7.92,0,0,1-3.22-.65,8.26,8.26,0,0,1-2.56-1.79,8.51,8.51,0,0,1-1.7-2.68,8.84,8.84,0,0,1-.61-3.3v-.05a8.94,8.94,0,0,1,.6-3.29,8.43,8.43,0,0,1,1.7-2.69,7.94,7.94,0,0,1,5.9-2.5,9.93,9.93,0,0,1,2,.19,7.76,7.76,0,0,1,3,1.34,10.54,10.54,0,0,1,1.2,1l-1.79,2.13a9.25,9.25,0,0,0-2-1.48,5.17,5.17,0,0,0-2.42-.56,4.75,4.75,0,0,0-2.1.46,5,5,0,0,0-1.66,1.24,5.6,5.6,0,0,0-1.09,1.83,6.49,6.49,0,0,0-.39,2.25v.05a6.55,6.55,0,0,0,.39,2.26,5.74,5.74,0,0,0,1.09,1.86,5,5,0,0,0,1.66,1.25,4.75,4.75,0,0,0,2.1.46,5,5,0,0,0,2.49-.58,9.75,9.75,0,0,0,2.06-1.55l1.79,1.87a11.15,11.15,0,0,1-1.28,1.21,8.16,8.16,0,0,1-1.44.91,6.73,6.73,0,0,1-1.69.58A9,9,0,0,1,191.28,29.52Z" transform="translate(-4.85 -5.53)"/><path class="cls-2" d="M206.23,12.74h2.58l7,16.5h-2.94l-1.61-3.95h-7.5l-1.63,3.95h-2.86Zm4,10-2.74-6.55-2.72,6.55Z" transform="translate(-4.85 -5.53)"/><path class="cls-2" d="M218.51,12.86h5.92a9,9,0,0,1,3.41.62,7.92,7.92,0,0,1,2.67,1.72,7.61,7.61,0,0,1,1.73,2.58,8.35,8.35,0,0,1,.61,3.22v.05a8.44,8.44,0,0,1-.61,3.23,7.69,7.69,0,0,1-1.73,2.6,8.26,8.26,0,0,1-2.67,1.73,9,9,0,0,1-3.41.63h-5.92Zm5.89,13.78a5.92,5.92,0,0,0,2.27-.41,4.86,4.86,0,0,0,1.73-1.15,5.07,5.07,0,0,0,1.11-1.76,6,6,0,0,0,.4-2.22v-.05a6,6,0,0,0-.4-2.23A5.16,5.16,0,0,0,228.4,17a5,5,0,0,0-1.73-1.16,5.92,5.92,0,0,0-2.27-.43h-3.12V26.64Z" transform="translate(-4.85 -5.53)"/><path class="cls-2" d="M236.23,12.86H248v2.59h-9v4.22h8v2.6h-8v4.37h9.09v2.6H236.23Z" transform="translate(-4.85 -5.53)"/><path class="cls-2" d="M251.41,12.86h3l4.82,7.74L264,12.86h3V29.24h-2.77V17.49l-5,7.73h-.09l-5-7.68v11.7h-2.76Z" transform="translate(-4.85 -5.53)"/><path class="cls-2" d="M275.74,22.78l-6.29-9.92h3.28l4.44,7.25,4.49-7.25h3.19l-6.3,9.85v6.53h-2.81Z" transform="translate(-4.85 -5.53)"/></svg>