<svg width="70" height="70" viewBox="0 0 70 70" fill="none" xmlns="http://www.w3.org/2000/svg">
<path d="M68.871 42.9032C69.4939 42.9032 70 42.3971 70 41.7742V25.9677C70 22.8552 67.4674 20.3226 64.3548 20.3226H37.2581C36.6351 20.3226 36.129 20.8287 36.129 21.4516V25.9677C36.129 26.5907 36.6351 27.0968 37.2581 27.0968H53.0645V36.129H46.2903C44.4231 36.129 42.9032 37.6489 42.9032 39.5161V56.4516H27.0968V53.0645C27.0968 52.4416 26.5907 51.9355 25.9677 51.9355H13.5484V24.8387H32.7419C33.3649 24.8387 33.871 24.3326 33.871 23.7097V16.9355H44.0323C44.4705 16.9355 44.8691 16.6813 45.0549 16.285C45.2412 15.8875 45.1806 15.4194 44.8994 15.0837L39.8568 9.03226L44.8994 2.9808C45.1806 2.64396 45.2401 2.17537 45.0549 1.77955C44.8691 1.38317 44.4705 1.12903 44.0323 1.12903H23.7097C23.0867 1.12903 22.5806 1.63511 22.5806 2.25806V9.03226H13.5484V7.47212C14.243 6.67717 14.6774 5.65067 14.6774 4.51613C14.6774 2.02542 12.652 0 10.1613 0C7.67058 0 5.64516 2.02542 5.64516 4.51613C5.64516 5.65067 6.07957 6.67717 6.77419 7.47212V51.9355H1.12903C0.50608 51.9355 0 52.4416 0 53.0645V68.871C0 69.4939 0.50608 70 1.12903 70H68.871C69.4939 70 70 69.4939 70 68.871V62.0968C70 61.4738 69.4939 60.9677 68.871 60.9677H65.4839V42.9032H68.871ZM37.5199 8.30952C37.171 8.7285 37.171 9.33712 37.5199 9.75499L41.622 14.6774H33.871V10.1613C33.871 9.8228 33.7139 9.52786 33.4779 9.32113L33.4862 9.31231L26.7142 3.3871H41.6204L37.5199 8.30952ZM24.8387 4.74657L29.7374 9.03226H24.8387V4.74657ZM31.6129 11.2903V22.5806H13.5484V20.3226H20.3226V18.0645H13.5484V15.8065H20.3226V13.5484H13.5484V11.2903H31.6129ZM10.1613 2.25806C11.4066 2.25806 12.4194 3.27078 12.4194 4.51613C12.4194 5.76148 11.4066 6.77419 10.1613 6.77419C8.91594 6.77419 7.90323 5.76148 7.90323 4.51613C7.90323 3.27078 8.91594 2.25806 10.1613 2.25806ZM9.03226 8.87183C9.39556 8.96665 9.76933 9.03226 10.1613 9.03226C10.5533 9.03226 10.927 8.96665 11.2903 8.87183V51.9355H9.03226V8.87183ZM67.7419 67.7419H2.25806V54.1936H24.8387V57.5806C24.8387 58.2036 25.3448 58.7097 25.9677 58.7097H49.6774V62.0968C49.6774 62.7197 50.1835 63.2258 50.8064 63.2258H67.7419V67.7419ZM58.7097 60.9677H51.9355V57.5806C51.9355 56.9577 51.4294 56.4516 50.8064 56.4516H49.6774V42.9032H58.7097V60.9677ZM60.9677 60.9677V41.7742C60.9677 41.1512 60.4617 40.6452 59.8387 40.6452H48.5484C47.9254 40.6452 47.4194 41.1512 47.4194 41.7742V56.4516H45.1613V39.5161C45.1613 38.8943 45.6685 38.3871 46.2903 38.3871H54.1936C54.8165 38.3871 55.3226 37.881 55.3226 37.2581V25.9677C55.3226 25.3448 54.8165 24.8387 54.1936 24.8387H38.3871V22.5806H64.3548C66.222 22.5806 67.7419 24.1005 67.7419 25.9677V40.6452H65.4839V29.3548H63.2258V60.9677H60.9677Z" fill="#f28e24"/>
<path d="M58.7097 18.0645C61.8223 18.0645 64.3549 15.5319 64.3549 12.4193V10.1613C64.3549 7.04872 61.8223 4.51611 58.7097 4.51611C55.5972 4.51611 53.0646 7.04872 53.0646 10.1613V12.4193C53.0646 15.5319 55.5972 18.0645 58.7097 18.0645ZM55.3226 10.1613C55.3226 8.29407 56.8425 6.77418 58.7097 6.77418C60.5769 6.77418 62.0968 8.29407 62.0968 10.1613V12.4193C62.0968 14.2865 60.5769 15.8064 58.7097 15.8064C56.8425 15.8064 55.3226 14.2865 55.3226 12.4193V10.1613Z" fill="#f28e24"/>
</svg>
