<svg width="70" height="70" viewBox="0 0 70 70" fill="none" xmlns="http://www.w3.org/2000/svg">
<g clip-path="url(#clip0)">
<path d="M65.3499 17.0063C64.1701 12.9968 61.723 9.47743 58.3752 6.97524C51.7934 1.81254 45.64 -0.32763 38.4419 0.0402749C34.6461 0.302361 30.8745 0.841162 27.157 1.65244C21.8934 2.712 18.0711 4.56219 15.4688 7.3091C13.4053 9.50641 11.8126 12.1023 10.7884 14.9372C10.3559 16.1796 10.0035 17.4483 9.73338 18.7356L9.63535 19.1578C9.39022 20.0649 9.05909 20.9466 8.64648 21.7907C8.40381 22.3318 8.16236 22.8736 7.95497 23.4245C7.6855 24.0417 7.57735 24.7174 7.64052 25.388C7.87731 26.4307 8.48146 27.3534 9.34264 27.9873C9.91453 28.5113 10.2905 28.8793 10.2939 29.2143C10.2487 29.3887 10.18 29.5562 10.0899 29.7122C8.69269 32.6574 6.98058 35.4424 4.98356 38.0189C4.14617 39.0414 3.26776 40.2342 3.4455 41.4487C3.69965 42.3686 4.3075 43.1508 5.13627 43.6242C5.52195 43.8923 5.92882 44.1285 6.35305 44.3301C6.85658 44.5865 7.69972 45.0166 7.75782 45.3236C7.83465 45.7177 7.79008 46.1256 7.63013 46.4937C7.45691 46.8588 7.27699 47.1744 7.12195 47.4484C6.69362 48.206 5.97585 49.4741 7.0581 50.3815C7.30994 50.6042 7.74059 50.9427 8.13475 51.2439C7.84286 51.7566 7.71188 52.3453 7.75878 52.9334C7.8218 53.3899 8.07035 53.8002 8.44578 54.0676C8.70663 54.2528 8.98581 54.4139 9.26266 54.5724C9.94857 54.9633 10.2163 55.1455 10.3085 55.5095C10.3698 55.9845 10.3267 56.4673 10.1821 56.9239C10.1148 57.2298 10.0488 57.5357 10.0078 57.841C9.8906 58.9021 10.0244 59.976 10.3986 60.9758C11.004 63.191 13.2366 64.5458 15.4811 64.0599C18.8125 63.2565 22.0981 62.2739 25.3235 61.1165C27.9461 62.6654 29.6027 67.3531 30.0345 69.111C30.1633 69.6324 30.631 69.9991 31.1681 69.9997H60.6648C61.0346 69.9995 61.3826 69.8241 61.6025 69.5268C61.8225 69.2294 61.8884 68.8454 61.7803 68.4918C61.4687 67.6696 61.025 66.9037 60.4665 66.2246C60.1503 65.8215 59.8691 65.392 59.6257 64.9411C59.1001 63.8648 58.6594 62.749 58.3075 61.6042C57.6405 59.3511 57.1803 57.0418 56.9324 54.7051C56.5199 51.2164 57.0466 47.6809 58.4579 44.464C59.3215 42.6835 60.384 41.0065 61.6252 39.4652C62.3304 38.5166 63.0584 37.5358 63.7147 36.5013C65.5562 33.6405 66.5465 30.3151 66.5697 26.9129C66.6399 23.5694 66.229 20.2331 65.3499 17.0063ZM64.2368 26.88C64.2171 29.8513 63.3521 32.7555 61.7428 35.2533C61.1333 36.2138 60.4315 37.1595 59.7525 38.0744C58.4053 39.7571 57.2536 41.5876 56.3198 43.5305C54.7418 47.129 54.1536 51.0837 54.6164 54.9857C54.8804 57.461 55.3697 59.9068 56.0782 62.2932C56.465 63.5506 56.9487 64.776 57.5251 65.9583C57.8281 66.5369 58.1823 67.0871 58.5835 67.6023C58.5995 67.6234 58.6154 67.6451 58.6302 67.6667H32.0515C31.2745 64.8978 29.8667 62.3465 27.9386 60.2128C28.2439 60.1063 28.5333 60.0048 28.8022 59.9102C29.676 59.6044 30.3346 59.3731 30.6661 59.2688C35.6676 57.6988 38.1695 55.4259 38.1012 52.5126C38.0861 51.8683 37.5514 51.3582 36.9072 51.3734C36.263 51.3885 35.7528 51.9231 35.768 52.5673C35.7964 53.7693 34.8133 55.5215 29.9654 57.0431C29.6213 57.152 28.9366 57.3907 28.0309 57.7085C27.1946 58.0014 26.1647 58.3619 25.0379 58.747L25.031 58.7494C21.7471 59.9377 18.4014 60.9479 15.0086 61.7753C13.9158 61.9874 12.8518 61.2953 12.6024 60.2105C12.3499 59.5552 12.2535 58.8501 12.321 58.1511C12.3529 57.9097 12.4076 57.6681 12.4612 57.4265C12.7004 56.6171 12.7376 55.7614 12.5694 54.9343C12.2352 53.8628 11.45 52.9906 10.4196 52.5457C10.3364 52.4984 10.2521 52.4506 10.1701 52.4022C10.2946 52.147 10.4442 51.9048 10.6167 51.6793C10.8113 51.4315 10.8971 51.1155 10.8549 50.8032C10.8126 50.4911 10.6457 50.2092 10.3924 50.022C10.1121 49.8152 9.44559 49.3156 8.96599 48.9328C9.02519 48.824 9.09245 48.7049 9.15397 48.5973C9.3328 48.2805 9.53787 47.9155 9.73734 47.4967C10.1107 46.6807 10.2202 45.7684 10.0507 44.8871C9.77836 43.4568 8.41119 42.7601 7.41316 42.2508C7.07492 42.0907 6.75063 41.9028 6.44356 41.6892C6.20116 41.5209 5.97148 41.3348 5.75656 41.1326C5.75998 40.9572 5.94222 40.5305 6.84004 39.435C8.92511 36.7472 10.7124 33.8413 12.1709 30.7682C12.4517 30.2868 12.6087 29.7432 12.6278 29.1863C12.5091 28.0109 11.8854 26.9453 10.9188 26.2663C10.4472 25.8345 10.0018 25.4265 9.95158 25.0689C9.95595 24.7855 10.0197 24.506 10.1385 24.2486C10.3299 23.7399 10.5544 23.2421 10.7765 22.7436C11.2523 21.764 11.6313 20.7402 11.9079 19.6868L12.007 19.2613C12.2551 18.0699 12.5793 16.8958 12.9777 15.7459C13.893 13.2073 15.3169 10.8823 17.1623 8.91347C19.4226 6.52776 22.8429 4.90083 27.6177 3.93985C31.2229 3.15209 34.8807 2.62737 38.5619 2.36993C45.1653 2.03784 50.8299 4.02024 56.9379 8.81217C59.9056 11.0013 62.0726 14.1041 63.1061 17.6441C63.9226 20.6528 64.3036 23.7631 64.2368 26.88Z" fill="#0071B3"/>
<path d="M59.2592 18.8684H56.8404C56.5718 17.9555 56.2062 17.074 55.7501 16.2389L57.4614 14.5276C57.8613 14.1279 57.9171 13.499 57.5936 13.0351C56.472 11.4258 55.0741 10.028 53.4648 8.90623C53.0014 8.58167 52.3717 8.63717 51.9722 9.03775L50.2609 10.749C49.4255 10.2928 48.5435 9.92723 47.6302 9.65872V7.23952C47.63 6.67447 47.2249 6.19076 46.6687 6.0911C44.7369 5.7504 42.7604 5.7504 40.8286 6.0911C40.2723 6.19076 39.8673 6.67447 39.867 7.23952V9.65886C38.9538 9.92737 38.0718 10.293 37.2363 10.7492L35.525 9.03789C35.1256 8.63731 34.496 8.5818 34.0325 8.90637C32.4232 10.028 31.0253 11.4259 29.9037 13.0352C29.5802 13.499 29.6358 14.128 30.0359 14.5278L31.7471 16.239C31.2911 17.0741 30.9255 17.9557 30.6568 18.8685H28.2382C27.673 18.8684 27.189 19.2736 27.0897 19.83C26.7465 21.762 26.7465 23.7393 27.0897 25.6713C27.189 26.2277 27.673 26.6329 28.2382 26.6328H30.657C30.9256 27.5457 31.2912 28.4272 31.7473 29.2623L30.036 30.9736C29.6361 31.3733 29.5803 32.0022 29.9038 32.4661C31.0254 34.0754 32.4233 35.4733 34.0326 36.595C34.4965 36.9179 35.125 36.8625 35.5252 36.4634L37.2365 34.7521C38.0719 35.2084 38.9539 35.574 39.8672 35.8425V38.2618C39.8674 38.8269 40.2725 39.3106 40.8287 39.4102C42.7604 39.7528 44.7372 39.7528 46.6688 39.4102C47.2251 39.3106 47.6301 38.8269 47.6304 38.2618V35.8425C48.5436 35.574 49.4256 35.2084 50.2611 34.7521L51.9724 36.4634C52.3724 36.8626 53.001 36.9182 53.4649 36.595C55.0742 35.4733 56.4721 34.0754 57.5937 32.4661C57.9172 32.0024 57.8616 31.3733 57.4615 30.9736L55.7503 29.2623C56.2063 28.4271 56.5719 27.5457 56.8406 26.6328H59.2594C59.8246 26.6329 60.3085 26.2277 60.4078 25.6713C60.7511 23.7393 60.7511 21.762 60.4078 19.83C60.3084 19.2736 59.8244 18.8684 59.2592 18.8684ZM58.2488 24.2996H55.9358C55.388 24.2995 54.914 24.6806 54.7965 25.2156C54.5168 26.495 54.0114 27.7142 53.304 28.8164C53.0066 29.2777 53.0716 29.8842 53.4601 30.2719L55.0973 31.9091C54.4487 32.7162 53.7144 33.4503 52.9075 34.0989L51.2703 32.4623C50.8826 32.0744 50.2771 32.0089 49.8154 32.3051C48.7129 33.0132 47.493 33.519 46.2129 33.7987C45.6779 33.9164 45.2969 34.3903 45.2969 34.9379V37.2508C44.2677 37.3613 43.2295 37.3613 42.2002 37.2508V34.9379C42.2002 34.3903 41.8192 33.9163 41.2842 33.7987C40.0042 33.519 38.7842 33.0132 37.6818 32.3051C37.2205 32.0077 36.614 32.0733 36.2268 32.4623L34.5896 34.0989C33.7826 33.4503 33.0484 32.716 32.3998 31.9091L34.037 30.2719C34.4254 29.8842 34.4905 29.2779 34.1931 28.8164C33.4858 27.7144 32.9803 26.495 32.7006 25.2156C32.5832 24.6806 32.109 24.2995 31.5613 24.2996H29.2486C29.1378 23.27 29.1378 22.2315 29.2486 21.2019H31.5615C32.1093 21.202 32.5833 20.8208 32.7007 20.2859C32.9805 19.0065 33.4859 17.7872 34.1933 16.685C34.4906 16.2237 34.4257 15.6174 34.0372 15.2295L32.4 13.5923C33.0486 12.7853 33.7829 12.0511 34.5898 11.4025L36.2269 13.0392C36.6141 13.428 37.2205 13.4936 37.6819 13.1964C38.7844 12.4882 40.0043 11.9825 41.2844 11.7028C41.8194 11.5851 42.2004 11.1112 42.2004 10.5635V8.25067C43.2296 8.14021 44.2678 8.14021 45.297 8.25067V10.5635C45.297 11.1112 45.6781 11.5852 46.213 11.7028C47.4931 11.9825 48.713 12.4882 49.8155 13.1964C50.2772 13.4924 50.8826 13.4269 51.2705 13.0392L52.9076 11.4025C53.7147 12.0511 54.4488 12.7854 55.0974 13.5923L53.4603 15.2295C53.0718 15.6173 53.0068 16.2236 53.3041 16.685C54.0115 17.7871 54.5169 19.0065 54.7967 20.2859C54.9141 20.8208 55.3882 21.202 55.9359 21.2019H58.2488C58.3596 22.2313 58.3596 23.27 58.2488 24.2996Z" fill="#0071B3"/>
<path d="M27.9988 33.8338H26.6664C26.5577 33.4161 26.3909 33.0158 26.1708 32.6446L27.1147 31.7005C27.5702 31.2449 27.5702 30.5064 27.1147 30.0507C26.6591 29.5952 25.9206 29.5952 25.4649 30.0507L24.5209 30.9949C24.1497 30.775 23.7495 30.6082 23.3321 30.4994V29.1671C23.3321 28.5227 22.8097 28.0005 22.1655 28.0005C21.5213 28.0005 20.9989 28.5229 20.9989 29.1671V30.4994C20.5814 30.6082 20.1812 30.775 19.8102 30.9949L18.8663 30.0507C18.5717 29.7559 18.1421 29.641 17.7395 29.7488C17.3368 29.8567 17.0225 30.1711 16.9147 30.5736C16.8068 30.9761 16.9219 31.4057 17.2165 31.7005L18.1604 32.6446C17.9403 33.0158 17.7735 33.4161 17.6648 33.8338H16.3324C15.688 33.8338 15.1658 34.356 15.1658 35.0004C15.1658 35.6447 15.688 36.167 16.3324 36.167H17.6648C17.7735 36.5847 17.9403 36.985 18.1604 37.3562L17.2165 38.3003C16.9219 38.5951 16.8068 39.0245 16.9147 39.4271C17.0225 39.8296 17.337 40.1441 17.7395 40.252C18.142 40.3598 18.5715 40.2447 18.8663 39.9501L19.8102 39.0059C20.1814 39.2258 20.5815 39.3926 20.9991 39.5014V40.8337C20.9991 41.478 21.5213 42.0003 22.1657 42.0003C22.81 42.0003 23.3323 41.478 23.3323 40.8337V39.5014C23.7498 39.3926 24.15 39.2258 24.521 39.0059L25.4649 39.9501C25.9205 40.4056 26.659 40.4056 27.1147 39.9501C27.5702 39.4945 27.5702 38.7559 27.1147 38.3003L26.1708 37.3562C26.3909 36.985 26.5577 36.5847 26.6664 36.167H27.9988C28.6432 36.167 29.1654 35.6447 29.1654 35.0004C29.1654 34.356 28.6432 33.8338 27.9988 33.8338ZM22.1655 37.3337C20.8768 37.3337 19.8322 36.2891 19.8322 35.0004C19.8322 33.7117 20.8768 32.667 22.1655 32.667C23.4542 32.667 24.4989 33.7117 24.4989 35.0004C24.4974 36.2884 23.4535 37.3322 22.1655 37.3337Z" fill="#0071B3"/>
<path d="M16.0585 22.1674C16.1304 22.4014 16.2244 22.6282 16.3389 22.8447L15.708 23.4759C15.4134 23.7706 15.2982 24.2001 15.4061 24.6027C15.514 25.0052 15.8284 25.3196 16.2309 25.4275C16.6334 25.5354 17.063 25.4203 17.3577 25.1256L17.9905 24.4926C18.2063 24.6067 18.4323 24.7003 18.6656 24.7724V25.6675C18.6656 26.3118 19.1878 26.8341 19.8322 26.8341C20.4765 26.8341 20.9988 26.3118 20.9988 25.6675V24.7724C21.232 24.7005 21.458 24.6068 21.6739 24.4926L22.3068 25.1258C22.7623 25.5813 23.501 25.5813 23.9565 25.1258C24.4121 24.6702 24.4121 23.9316 23.9565 23.476L23.3254 22.8447C23.4401 22.6282 23.5341 22.4016 23.606 22.1675H24.4987C25.1431 22.1675 25.6653 21.6451 25.6653 21.0009C25.6653 20.3565 25.1431 19.8343 24.4987 19.8343H23.606C23.5341 19.6002 23.4401 19.3735 23.3254 19.1571L23.9565 18.5258C24.2513 18.231 24.3663 17.8016 24.2584 17.3989C24.1505 16.9965 23.8361 16.682 23.4336 16.5741C23.0311 16.4663 22.6015 16.5814 22.3068 16.876L21.6739 17.5091C21.458 17.3951 21.232 17.3016 20.9988 17.2297V16.3343C20.9988 15.69 20.4765 15.1677 19.8322 15.1677C19.1878 15.1677 18.6656 15.69 18.6656 16.3343V17.2298C18.4323 17.3017 18.2063 17.3953 17.9905 17.5093L17.3576 16.876C16.9021 16.4205 16.1635 16.4205 15.7078 16.876C15.2523 17.3315 15.2523 18.0701 15.7078 18.5258L16.3389 19.1571C16.2242 19.3735 16.1303 19.6002 16.0584 19.8343H15.1656C14.5213 19.8343 13.999 20.3567 13.999 21.0009C13.999 21.6452 14.5214 22.1675 15.1656 22.1675H16.0585V22.1674ZM19.4092 19.4221C20.1234 19.2305 20.8774 19.5427 21.2472 20.183C21.617 20.8234 21.5107 21.6324 20.9877 22.1553C20.5207 22.6228 19.8178 22.7628 19.2073 22.51C18.5967 22.2572 18.1986 21.6614 18.1986 21.0006C18.1984 20.2611 18.695 19.6136 19.4092 19.4221Z" fill="#0071B3"/>
<path d="M43.7486 15.1674C39.5605 15.1674 36.1653 18.5625 36.1653 22.7506C36.1701 26.9368 39.5624 30.329 43.7486 30.3339C47.9366 30.3339 51.3318 26.9388 51.3318 22.7506C51.3318 18.5625 47.9366 15.1674 43.7486 15.1674ZM43.7486 28.0004C40.8491 28.0004 38.4986 25.65 38.4986 22.7505C38.5018 19.8524 40.8504 17.5037 43.7486 17.5006C46.648 17.5006 48.9985 19.851 48.9985 22.7505C48.9985 25.65 46.648 28.0004 43.7486 28.0004Z" fill="#0071B3"/>
</g>
<defs>
<clipPath id="clip0">
<rect width="70" height="70" fill="white"/>
</clipPath>
</defs>
</svg>
