<svg width="70" height="70" viewBox="0 0 70 70" fill="none" xmlns="http://www.w3.org/2000/svg">
<g clip-path="url(#clip0)">
<path d="M69.5957 48.6531L66.2585 45.3432C65.7221 44.8112 64.8564 44.8149 64.3246 45.3511C63.7926 45.8873 63.7963 46.7531 64.3325 47.285L67.6696 50.5949C67.9362 50.8595 68.2844 50.9915 68.6325 50.9915C68.9843 50.9915 69.336 50.8566 69.6033 50.587C70.1354 50.0508 70.1319 49.1849 69.5957 48.6531Z" fill="#0071B3"/>
<path d="M62.8581 41.9564C62.3241 41.4224 61.4585 41.4224 60.9242 41.9564L60.9219 41.9587C60.3879 42.4928 60.3891 43.3575 60.9231 43.8915C61.1897 44.1583 61.5396 44.2916 61.8893 44.2916C62.2398 44.2916 62.5907 44.1577 62.8579 43.8904C63.392 43.3564 63.392 42.4906 62.8581 41.9564Z" fill="#0071B3"/>
<path d="M51.2003 48.2618L64.4658 34.9964C66.4749 32.9872 66.4749 29.7179 64.4657 27.7087C63.7572 27.0002 62.8919 26.5428 61.9805 26.334C62.2931 25.6622 62.4585 24.9249 62.4585 24.1618C62.4585 22.7853 61.9224 21.4913 60.9493 20.5181C60.186 19.7547 59.225 19.2617 58.1819 19.0841C58.7692 17.295 58.3541 15.246 56.934 13.826C56.1532 13.0454 55.1821 12.5696 54.1686 12.3957C54.3384 11.8804 54.4279 11.3362 54.4279 10.7779C54.4279 9.4014 53.8919 8.10735 52.9187 7.13419C51.9454 6.16103 50.6513 5.62495 49.275 5.62495C48.401 5.62495 47.5605 5.84179 46.8139 6.24894L46.682 6.10716C44.9673 4.26446 42.5401 3.20776 40.0232 3.20776H29.2854C28.5303 3.20776 27.9179 3.82013 27.9179 4.57522V6.36843C27.9179 7.08606 28.0393 7.7847 28.2715 8.44163C27.6529 8.18474 26.9837 8.0498 26.2938 8.0498C24.9173 8.0498 23.6233 8.58587 22.65 9.55903C21.2292 10.9798 20.8145 13.0303 21.4031 14.82C20.3888 14.9935 19.4163 15.4695 18.6348 16.2509C17.6617 17.2242 17.1256 18.5182 17.1256 19.8946C17.1256 20.4518 17.2149 20.9951 17.384 21.5093C16.3422 21.6875 15.3822 22.1802 14.6195 22.943C13.0504 24.5121 12.7068 26.85 13.5888 28.7557C12.6549 28.9691 11.7971 29.4394 11.1029 30.1336C9.09378 32.1426 9.09378 35.4119 11.1029 37.4211L13.8309 40.149L0.400517 53.5792C-0.133506 54.1132 -0.133506 54.9791 0.400517 55.5132C0.667529 55.7801 1.01753 55.9138 1.36739 55.9138C1.71726 55.9138 2.06726 55.7802 2.33427 55.5132L15.8943 41.9532C16.662 42.3912 17.5331 42.6256 18.4411 42.6256C19.8174 42.6256 21.1115 42.0895 22.0848 41.1162C23.1422 40.0589 23.6423 38.6525 23.5866 37.2645C23.656 37.2674 23.7253 37.2695 23.7946 37.2695C25.1139 37.2693 26.4339 36.767 27.4383 35.7627C28.4114 34.7894 28.9475 33.4953 28.9475 32.119C28.9475 32.0494 28.9452 31.9802 28.9425 31.911C29.011 31.9138 29.0795 31.916 29.1481 31.916C30.4676 31.916 31.7873 31.4137 32.7918 30.4092C33.7649 29.4359 34.301 28.1418 34.301 26.7655C34.301 26.6959 34.2987 26.6267 34.296 26.5575C34.3645 26.5603 34.433 26.5625 34.5016 26.5625C35.8212 26.5625 37.1408 26.0602 38.1453 25.0557C40.0331 23.1679 40.1467 20.1679 38.4871 18.1457L47.5644 9.06835C48.0211 8.61144 48.6282 8.36001 49.2742 8.36001C49.9202 8.36001 50.5273 8.61144 50.9841 9.06835C51.4409 9.52513 51.6923 10.1322 51.6923 10.7782C51.6923 11.424 51.4409 12.0313 50.984 12.488L49.6456 13.8263L44.7897 18.6823C44.2556 19.2163 44.2556 20.0821 44.7897 20.6163C45.0567 20.8832 45.4067 21.0169 45.7565 21.0169C46.1064 21.0169 46.4564 20.8833 46.7234 20.6163L51.5794 15.7603C52.5221 14.8175 54.0562 14.8174 54.9991 15.7602C55.9419 16.7031 55.9419 18.2371 54.9991 19.1801L53.6607 20.5185L50.1432 24.036C49.6091 24.5701 49.6091 25.4359 50.1432 25.9701C50.4102 26.2369 50.7602 26.3707 51.11 26.3707C51.4599 26.3707 51.8099 26.2371 52.0769 25.9701L55.5944 22.4526C56.0512 21.9957 56.6584 21.7442 57.3042 21.7442C57.9502 21.7442 58.5574 21.9957 59.0142 22.4526C59.4709 22.9093 59.7224 23.5164 59.7224 24.1624C59.7224 24.8082 59.4709 25.4155 59.014 25.8722L57.1769 27.7093L55.4965 29.3897C54.9625 29.9237 54.9625 30.7895 55.4965 31.3237C55.7635 31.5906 56.1135 31.7243 56.4634 31.7243C56.8133 31.7243 57.1633 31.5907 57.4303 31.3237L59.1119 29.6421C60.0549 28.7008 61.588 28.7009 62.5304 29.6433C63.4734 30.5861 63.4734 32.1202 62.5304 33.0632L49.2649 46.3286C45.9339 49.6597 41.5068 51.5882 36.7991 51.759C36.4531 51.7716 36.1244 51.915 35.88 52.1606L23.6256 64.4604C23.0925 64.9953 23.094 65.8612 23.6292 66.3942C23.8959 66.66 24.2451 66.7931 24.5943 66.7931C24.9449 66.7931 25.2959 66.6589 25.5629 66.3907L34.5764 57.344C36.8659 58.8128 39.5584 59.5111 42.2962 59.3301L49.3506 66.3847C49.6176 66.6516 49.9676 66.7853 50.3175 66.7853C50.6675 66.7853 51.0173 66.6517 51.2844 66.3847C51.8184 65.8507 51.8184 64.9848 51.2844 64.4507L43.784 56.9494C43.5 56.6656 43.1054 56.5206 42.7053 56.5534L42.2717 56.5889C40.2706 56.753 38.2925 56.3147 36.5655 55.3468L37.4443 54.4649C42.6418 54.1442 47.5079 51.9543 51.2003 48.2618ZM20.151 39.1824C19.6943 39.6393 19.087 39.8908 18.4412 39.8908C17.7952 39.8908 17.1881 39.6393 16.7314 39.1824L13.0365 35.4876C12.0937 34.5448 12.0937 33.0107 13.0365 32.0677C13.4932 31.6108 14.1006 31.3594 14.7464 31.3594C15.3923 31.3594 15.9996 31.6108 16.4562 32.0677L20.1512 35.7625C21.0939 36.7054 21.0939 38.2395 20.151 39.1824ZM25.5048 33.8287C24.5619 34.7715 23.0275 34.7715 22.0849 33.8287L18.39 30.1337L16.5527 28.2965C15.6099 27.3537 15.6099 25.8195 16.5527 24.8767C17.0095 24.4198 17.6168 24.1684 18.2625 24.1684C18.9085 24.1684 19.5157 24.4198 19.9723 24.8767L25.5044 30.4088C25.5044 30.4088 25.5044 30.4088 25.5045 30.4088C25.9614 30.8657 26.2129 31.4729 26.2129 32.1187C26.2129 32.7646 25.9614 33.3719 25.5048 33.8287ZM30.8583 28.475C29.9154 29.4177 28.3811 29.4178 27.4384 28.475L20.5679 21.6045C20.1111 21.1477 19.8597 20.5407 19.8597 19.8947C19.8597 19.2488 20.1111 18.6415 20.568 18.1849C21.0394 17.7135 21.6588 17.4778 22.2778 17.4778C22.8966 17.4778 23.5153 17.7132 23.9865 18.1838L27.118 21.3152L30.858 25.0553H30.8582C31.3148 25.5121 31.5662 26.1191 31.5662 26.7651C31.5665 27.4111 31.3151 28.0184 30.8583 28.475ZM36.2119 23.1214C35.2691 24.0642 33.735 24.0642 32.7922 23.1214L25.9217 16.2509C25.921 16.2502 25.9202 16.2495 25.9193 16.2487L24.5832 14.9125C23.6404 13.9696 23.6404 12.4356 24.5832 11.4926C25.0546 11.0211 25.6739 10.7854 26.2931 10.7854C26.9123 10.7854 27.5317 11.0211 28.0029 11.4926L36.2117 19.7014C36.6686 20.1582 36.92 20.7653 36.92 21.4112C36.9201 22.0573 36.6688 22.6648 36.2119 23.1214ZM36.5715 16.1936L32.8156 12.4376C33.2414 12.5286 33.6794 12.5768 34.1251 12.5767C34.135 12.5767 34.1452 12.5767 34.1553 12.5767L37.9079 12.5591C38.663 12.5555 39.2725 11.9404 39.269 11.1852C39.2654 10.4321 38.6539 9.82413 37.9016 9.82413C37.8995 9.82413 37.8973 9.82413 37.8951 9.82413L34.1424 9.84177C34.1367 9.84177 34.1312 9.84177 34.1255 9.84177C33.2008 9.84177 32.3312 9.48288 31.6755 8.83032C31.0157 8.17353 30.6524 7.29935 30.6524 6.36829V5.94255H40.0228C41.7831 5.94255 43.4804 6.68151 44.6797 7.97022L44.7354 8.02997L36.5715 16.1936Z" fill="#0071B3"/>
</g>
<defs>
<clipPath id="clip0">
<rect width="70" height="70" fill="white"/>
</clipPath>
</defs>
</svg>
