<svg width="70" height="70" viewBox="0 0 70 70" fill="none" xmlns="http://www.w3.org/2000/svg">
<path d="M68.8333 7C69.4776 7 70 6.47762 70 5.83333V1.16667C70 0.522379 69.4776 0 68.8333 0H1.16667C0.522379 0 0 0.522379 0 1.16667V5.83333C0 6.47762 0.522379 7 1.16667 7H3.5V46.6667H1.16667C0.522379 46.6667 0 47.189 0 47.8333V52.5C0 53.1443 0.522379 53.6667 1.16667 53.6667H30.1317L17.7814 68.0751C17.4852 68.4209 17.4174 68.9074 17.6077 69.321C17.7979 69.7345 18.2115 69.9994 18.6667 70H23.3333C23.674 70 23.997 69.8513 24.2186 69.5927L31.5 61.1019V68.8333C31.5 69.4776 32.0224 70 32.6667 70H37.3333C37.9776 70 38.5 69.4776 38.5 68.8333V61.1019L45.7814 69.5927C46.003 69.8513 46.326 70 46.6667 70H51.3333C51.7885 69.9994 52.2021 69.7345 52.3923 69.321C52.5826 68.9074 52.5148 68.4209 52.2186 68.0751L39.8683 53.6667H68.8333C69.4776 53.6667 70 53.1443 70 52.5V47.8333C70 47.189 69.4776 46.6667 68.8333 46.6667H66.5V7H68.8333ZM2.33333 2.33333H67.6667V4.66667H2.33333V2.33333ZM22.7967 67.6667H21.2028L31.5 55.6502V57.5164L22.7967 67.6667ZM36.1667 67.6667H33.8333V53.6667H36.1667V67.6667ZM47.2033 67.6667L38.5 57.5164V55.6502L48.7972 67.6667H47.2033ZM67.6667 51.3333H2.33333V49H67.6667V51.3333ZM64.1667 46.6667H5.83333V7H64.1667V46.6667Z" fill="#0071B3"/>
<path d="M17.5 37.3333C17.4909 39.7607 19.344 41.7898 21.7622 42C24.1805 42.2102 26.3566 40.5314 26.7661 38.1388C27.1763 35.7463 25.6838 33.4391 23.3334 32.8324V32.6667C23.3374 29.4464 25.9464 26.8373 29.1667 26.8333H40.8334C45.3411 26.8276 48.9943 23.1744 49 18.6667V18.5009C51.2753 17.9136 52.7592 15.7255 52.463 13.3945C52.1668 11.0634 50.1832 9.31567 47.8334 9.31567C45.4835 9.31567 43.5 11.0634 43.2037 13.3945C42.9075 15.7255 44.3915 17.9136 46.6667 18.5009V18.6667C46.6627 21.887 44.0537 24.496 40.8334 24.5H29.1667C24.659 24.5057 21.0057 28.1589 21 32.6667V32.8324C18.9458 33.3628 17.508 35.2119 17.5 37.3333ZM45.5 14C45.5 12.7114 46.5448 11.6667 47.8334 11.6667C49.1219 11.6667 50.1667 12.7114 50.1667 14C50.1667 15.2886 49.1219 16.3333 47.8334 16.3333C46.5448 16.3333 45.5 15.2886 45.5 14ZM22.1667 35C23.4553 35 24.5 36.0448 24.5 37.3333C24.5 38.6219 23.4553 39.6667 22.1667 39.6667C20.8781 39.6667 19.8334 38.6219 19.8334 37.3333C19.8334 36.0448 20.8781 35 22.1667 35Z" fill="#0071B3"/>
<path d="M41.3164 31.7006L39.6667 33.3503L38.0169 31.7006L36.3672 33.3503L38.0169 35L36.3672 36.6498L38.0169 38.2995L39.6667 36.6498L41.3164 38.2995L42.9661 36.6498L41.3164 35L42.9661 33.3503L41.3164 31.7006Z" fill="#0071B3"/>
<path d="M51.5339 25.1836L53.1837 26.8333L51.5339 28.483L53.1837 30.1328L54.8334 28.483L56.4832 30.1328L58.1329 28.483L56.4832 26.8333L58.1329 25.1836L56.4832 23.5338L54.8334 25.1836L53.1837 23.5338L51.5339 25.1836Z" fill="#0071B3"/>
<path d="M16.8164 20.0338L15.1667 21.6836L13.5169 20.0338L11.8672 21.6836L13.5169 23.3333L11.8672 24.983L13.5169 26.6328L15.1667 24.983L16.8164 26.6328L18.4661 24.983L16.8164 23.3333L18.4661 21.6836L16.8164 20.0338Z" fill="#0071B3"/>
<path d="M27.5169 19.6328L29.1667 17.983L30.8164 19.6328L32.4661 17.983L30.8164 16.3333L32.4661 14.6836L30.8164 13.0338L29.1667 14.6836L27.5169 13.0338L25.8672 14.6836L27.5169 16.3333L25.8672 17.983L27.5169 19.6328Z" fill="#0071B3"/>
<path d="M50.1667 37.3334H52.5001V39.6667H50.1667V37.3334Z" fill="#0071B3"/>
<path d="M54.8333 37.3334H59.4999V39.6667H54.8333V37.3334Z" fill="#0071B3"/>
<path d="M50.1667 40.8334H59.5001V43.1667H50.1667V40.8334Z" fill="#0071B3"/>
<path d="M10.5 9.33337H17.5V11.6667H10.5V9.33337Z" fill="#0071B3"/>
<path d="M10.5 12.8334H17.5V15.1667H10.5V12.8334Z" fill="#0071B3"/>
</svg>
