<?xml version="1.0" encoding="utf-8"?>
<!-- Generator: Adobe Illustrator 22.1.0, SVG Export Plug-In . SVG Version: 6.00 Build 0)  -->
<svg version="1.1" id="Layer_1" xmlns="http://www.w3.org/2000/svg" xmlns:xlink="http://www.w3.org/1999/xlink" x="0px" y="0px"
	 viewBox="0 0 56.7 56.7" style="enable-background:new 0 0 56.7 56.7;" xml:space="preserve">
<style type="text/css">
	.st0{fill:#F28E24;}
	.st1{fill:#F28E24;stroke:#FFFFFF;stroke-miterlimit:10;}
	.st2{fill:#FFFFFF;}
</style>
<g id="XMLID_1_">
	<g>
		<g id="XMLID_15_">
			<g id="XMLID_16_">
				<path id="XMLID_20_" class="st0" d="M28.3,0.9c15.2,0,27.5,12.3,27.5,27.5S43.5,55.9,28.3,55.9S0.8,43.6,0.8,28.4
					S13.1,0.9,28.3,0.9L28.3,0.9z"/>
				<path id="XMLID_19_" class="st1" d="M28.3,0.9c15.2,0,27.5,12.3,27.5,27.5S43.5,55.9,28.3,55.9S0.8,43.6,0.8,28.4
					S13.1,0.9,28.3,0.9L28.3,0.9z"/>
			</g>
		</g>
	</g>
	<g>
		
			<image style="overflow:visible;opacity:0.22;enable-background:new    ;" width="125" height="171" id="XMLID_14_" xlink:href="5B163D5AC158E485.png"  transform="matrix(0.2344 0 0 0.2344 24.3185 13.332)">
		</image>
		<g id="XMLID_10_">
			<path id="XMLID_12_" class="st2" d="M42.9,40.5c-1,3.1-2.5,5.4-4.6,7.1c-2.1,1.7-4.9,2.6-8.4,2.9l-0.7-4.6c2.3-0.3,4-0.8,5.1-1.6
				c0.4-0.3,1.2-1.2,1.2-1.2l0,0l-8.3-26.6h6.9l4.8,19.9L44,16.5h6.7L42.9,40.5L42.9,40.5z"/>
		</g>
	</g>
	<g>
		
			<image style="overflow:visible;opacity:0.22;enable-background:new    ;" width="113" height="138" id="XMLID_9_" xlink:href="5B163D5AC158E487.png"  transform="matrix(0.2273 0 0 0.2273 4.3161 12.7648)">
		</image>
		<g id="XMLID_7_">
			<path id="XMLID_8_" class="st2" d="M18.8,15.6c1.6,0,3.1,0.2,4.3,0.7c1.3,0.5,2.5,1.2,3.7,2.2L24,22.3c-0.8-0.6-1.6-1-2.3-1.3
				c-0.7-0.3-1.6-0.4-2.4-0.4c-3.4,0-5.1,2.6-5.1,7.9c0,2.7,0.4,4.6,1.3,5.7c0.9,1.2,2.1,1.7,3.8,1.7c0.8,0,1.6-0.1,2.3-0.4
				c0.7-0.3,1.5-0.7,2.5-1.3l2.8,4C24.6,40.1,22,41,19,41c-2.4,0-4.4-0.5-6.2-1.5c-1.7-1-3.1-2.5-4-4.4S7.4,31,7.4,28.4
				c0-2.5,0.5-4.8,1.4-6.7c0.9-2,2.3-3.5,4-4.6C14.5,16.2,16.5,15.6,18.8,15.6L18.8,15.6z"/>
		</g>
	</g>
</g>
</svg>
