<?xml version="1.0" encoding="utf-8"?>
<!-- Generator: Adobe Illustrator 22.1.0, SVG Export Plug-In . SVG Version: 6.00 Build 0)  -->
<svg version="1.1" id="Lager_1" xmlns="http://www.w3.org/2000/svg" xmlns:xlink="http://www.w3.org/1999/xlink" x="0px" y="0px"
	 viewBox="0 0 56.7 56.7" style="enable-background:new 0 0 56.7 56.7;" xml:space="preserve">
<style type="text/css">
	.st0{fill:#F28E24;}
</style>
<title>JavaScript icon</title>
<path class="st0" d="M0.8,0.9h55v55h-55V0.9z M51.3,42.8c-0.4-2.5-2-4.6-6.9-6.6c-1.7-0.8-3.6-1.3-4.1-2.6c-0.2-0.8-0.2-1.2-0.1-1.6
	c0.3-1.5,2.1-1.9,3.5-1.5c0.9,0.3,1.7,1,2.2,2.1c2.4-1.5,2.4-1.5,4-2.6c-0.6-1-0.9-1.4-1.3-1.8c-1.4-1.6-3.4-2.4-6.5-2.4L40.5,26
	c-1.5,0.4-3,1.2-3.9,2.3c-2.6,3-1.9,8.1,1.3,10.2c3.1,2.3,7.7,2.9,8.3,5.1c0.5,2.7-2,3.5-4.5,3.2c-1.9-0.4-2.9-1.3-4-3.1l-4.2,2.4
	c0.5,1.1,1,1.6,1.9,2.5c4,4,14,3.8,15.7-2.3c0.1-0.2,0.5-1.6,0.2-3.8C51.2,42.7,51.3,42.8,51.3,42.8z M30.8,26.2h-5.2
	c0,4.4,0,8.9,0,13.3c0,2.8,0.1,5.4-0.3,6.2c-0.8,1.6-2.7,1.4-3.6,1.1c-0.9-0.4-1.4-1.1-1.9-2c-0.1-0.2-0.3-0.4-0.3-0.4L15.3,47
	c0.7,1.4,1.7,2.7,3,3.5c2,1.2,4.6,1.5,7.3,0.9c1.8-0.5,3.3-1.6,4.1-3.2c1.2-2.1,0.9-4.7,0.9-7.7c0-4.7,0-9.4,0-14.2
	C30.7,26.3,30.8,26.2,30.8,26.2z"/>
</svg>
