<?xml version="1.0" encoding="utf-8"?>
<!-- Generator: Adobe Illustrator 22.1.0, SVG Export Plug-In . SVG Version: 6.00 Build 0)  -->
<svg version="1.1" id="Lager_1" xmlns="http://www.w3.org/2000/svg" xmlns:xlink="http://www.w3.org/1999/xlink" x="0px" y="0px"
	 viewBox="0 0 56.7 56.7" style="enable-background:new 0 0 56.7 56.7;" xml:space="preserve">
<style type="text/css">
	.st0{fill:#F28E24;}
</style>
<title>Jest icon</title>
<path class="st0" d="M54.2,27.9c0-3.2-2.4-6.1-5.9-6.9l7.5-20.2H18.5l7.6,20.3c-3.3,0.9-5.7,3.7-5.7,6.8c0,2.4,1.3,4.5,3.3,5.8
	c-0.8,1-1.7,2-2.7,2.9c-1.9,1.6-4,2.9-6.4,3.8c-2.1-1.3-3-3.6-2.2-5.6c4.1-1.2,6.4-5.2,5.2-8.9c-1-3-4-5-7.5-5
	c-4.3,0-7.8,3.2-7.8,7.1c0,1.9,0.9,3.7,2.3,5c-0.1,0.2-0.2,0.4-0.4,0.7c-1.2,2.2-2.5,4.7-3,7.5c-1,5.6,0.6,10,4.7,12.6
	c2.2,1.4,4.8,2.1,7.4,2.1c4.6,0,9.3-2.1,13.8-4.1c3.2-1.4,6.5-3,9.8-3.7c1.2-0.3,2.5-0.4,3.8-0.6c2.7-0.4,5.5-0.7,8-2
	c2.9-1.5,4.9-4.1,5.5-7.1c0.4-2.3,0-4.6-1.1-6.6C53.8,30.6,54.2,29.3,54.2,27.9L54.2,27.9z M50.8,27.9c0,2.2-2,4-4.4,4
	c-2.4,0-4.4-1.8-4.4-4c0-1.2,0.6-2.4,1.7-3.1l0,0c0.1-0.1,0.3-0.2,0.5-0.3c0,0,0,0,0,0c0.1,0,0.1-0.1,0.2-0.1c0,0,0,0,0.1,0
	c0.1,0,0.2-0.1,0.2-0.1c0.1,0,0.2-0.1,0.2-0.1c0,0,0,0,0.1,0c0.1,0,0.1,0,0.2-0.1c0,0,0.1,0,0.1,0c0.1,0,0.2,0,0.2,0h0l0.3-0.1
	c0,0,0.1,0,0.1,0c0.1,0,0.1,0,0.2,0h0.1c0.1,0,0.2,0,0.3,0h0.2c0.1,0,0.1,0,0.2,0h0c0.1,0,0.3,0,0.4,0.1
	C49.3,24.4,50.8,26,50.8,27.9L50.8,27.9z M23.4,4H51l-6.3,17c-0.3,0-0.5,0.1-0.8,0.2L37.2,8.9l-6.7,12.3C30.3,21,30,21,29.7,20.9
	L23.4,4L23.4,4z M35.9,26.5c-0.3-1.5-1.1-2.8-2.4-3.8l3.6-6.7l3.7,6.8c-1.1,1-1.9,2.2-2.2,3.7H35.9L35.9,26.5z M27.2,24
	c0.1,0,0.2,0,0.2,0h0.1c0.1,0,0.1,0,0.2,0h0.1c0.1,0,0.1,0,0.2,0h0.7c0.1,0,0.1,0,0.2,0c0,0,0.1,0,0.1,0c0.1,0,0.1,0,0.2,0
	c0,0,0,0,0.1,0l0.2,0h0c0.1,0,0.1,0,0.2,0.1c0,0,0,0,0.1,0c0.1,0,0.1,0,0.2,0.1c0,0,0,0,0.1,0c0.1,0,0.1,0,0.2,0.1h0
	c0.1,0,0.2,0.1,0.2,0.1h0c0.1,0,0.1,0.1,0.2,0.1c0,0,0,0,0,0c0.1,0,0.1,0.1,0.2,0.1l0,0c0.2,0.1,0.4,0.3,0.6,0.5l0,0
	c0.8,0.7,1.2,1.7,1.2,2.8c-0.1,2.2-2.1,4-4.6,3.9c-2.3-0.1-4.2-1.8-4.3-3.9C23.8,26.1,25.2,24.5,27.2,24z M9.9,23.9
	c2.4,0,4.4,1.8,4.4,4s-2,4-4.4,4s-4.4-1.8-4.4-4S7.5,23.9,9.9,23.9z M50.7,37.7c-0.4,2.1-1.8,3.9-3.8,4.9c-1.9,1-4.3,1.3-6.7,1.6
	c-1.4,0.2-2.8,0.4-4.1,0.7c-3.6,0.8-7.1,2.4-10.5,3.9c-4.3,2-8.4,3.8-12.2,3.8c-1.9,0-3.8-0.5-5.4-1.6c-3.9-2.4-3.7-7-3.2-9.4
	C5,39.3,6.2,37.1,7.3,35c0.1-0.1,0.1-0.2,0.2-0.4c0.4,0.1,0.8,0.2,1.2,0.3c-0.7,3.4,1.2,6.9,4.9,8.6l0.7,0.3l0.7-0.2
	c3.1-1,5.9-2.6,8.4-4.7c1.4-1.2,2.6-2.5,3.6-3.9c0.4,0.1,0.8,0.1,1.2,0.1c3.6,0,6.7-2.2,7.6-5.3h2.9c0.9,3.1,4,5.3,7.6,5.3
	c1.5,0,2.8-0.4,4-1C50.8,35.2,50.9,36.5,50.7,37.7z"/>
</svg>
