<?xml version="1.0" encoding="utf-8"?>
<!-- Generator: Adobe Illustrator 22.1.0, SVG Export Plug-In . SVG Version: 6.00 Build 0)  -->
<svg version="1.1" id="Lager_1" xmlns="http://www.w3.org/2000/svg" xmlns:xlink="http://www.w3.org/1999/xlink" x="0px" y="0px"
	 viewBox="0 0 144.6 56.7" style="enable-background:new 0 0 144.6 56.7;" xml:space="preserve">
<style type="text/css">
	.st0{fill:#F28E24;}
	.st1{clip-path:url(#SVGID_2_);}
	.st2{clip-path:url(#SVGID_4_);}
	.st3{clip-path:url(#SVGID_6_);}
</style>
<g>
	<path class="st0" d="M31.6,30c0-0.6-0.3-1.1-0.8-1.4l-13.7-7.9c-0.2-0.1-0.5-0.2-0.8-0.2h-0.1c-0.3,0-0.5,0.1-0.8,0.2L1.7,28.6
		c-0.5,0.3-0.8,0.8-0.8,1.4l0,21.2c0,0.3,0.2,0.6,0.4,0.7c0.3,0.2,0.6,0.2,0.8,0l8.1-4.7c0.5-0.3,0.8-0.8,0.8-1.4V36
		c0-0.6,0.3-1.1,0.8-1.4l3.5-2c0.3-0.1,0.5-0.2,0.8-0.2c0.3,0,0.6,0.1,0.8,0.2l3.5,2c0.5,0.3,0.8,0.8,0.8,1.4v9.9
		c0,0.6,0.3,1.1,0.8,1.4l8.1,4.7c0.3,0.2,0.6,0.2,0.8,0c0.3-0.1,0.4-0.4,0.4-0.7L31.6,30z M96.1,41.1c0,0.1-0.1,0.3-0.2,0.4
		l-4.7,2.7c-0.1,0.1-0.3,0.1-0.4,0l-4.7-2.7c-0.1-0.1-0.2-0.2-0.2-0.4v-5.4c0-0.1,0.1-0.3,0.2-0.4l4.7-2.7c0.1-0.1,0.3-0.1,0.4,0
		l4.7,2.7c0.1,0.1,0.2,0.2,0.2,0.4L96.1,41.1z M97.3,0.9c-0.3-0.1-0.6-0.1-0.8,0c-0.3,0.1-0.4,0.4-0.4,0.7v21c0,0.2-0.1,0.4-0.3,0.5
		c-0.2,0.1-0.4,0.1-0.6,0l-3.4-2c-0.5-0.3-1.1-0.3-1.7,0L76.5,29c-0.5,0.3-0.8,0.8-0.8,1.4v15.8c0,0.6,0.3,1.1,0.8,1.4l13.7,7.9
		c0.5,0.3,1.1,0.3,1.7,0l13.7-7.9c0.5-0.3,0.8-0.8,0.8-1.4V6.9c0-0.6-0.3-1.2-0.8-1.4L97.3,0.9z M142.9,35.5
		c0.5-0.3,0.8-0.8,0.8-1.4v-3.8c0-0.6-0.3-1.1-0.8-1.4l-13.6-7.9c-0.5-0.3-1.1-0.3-1.7,0L114,28.8c-0.5,0.3-0.8,0.8-0.8,1.4V46
		c0,0.6,0.3,1.1,0.8,1.4l13.6,7.7c0.5,0.3,1.1,0.3,1.6,0l8.2-4.6c0.3-0.1,0.4-0.4,0.4-0.7c0-0.3-0.2-0.6-0.4-0.7l-13.8-7.9
		c-0.3-0.1-0.4-0.4-0.4-0.7v-5c0-0.3,0.2-0.6,0.4-0.7l4.3-2.5c0.3-0.1,0.6-0.1,0.8,0L133,35c0.3,0.1,0.4,0.4,0.4,0.7v3.9
		c0,0.3,0.2,0.6,0.4,0.7c0.3,0.1,0.6,0.1,0.8,0L142.9,35.5z"/>
	<path class="st0" d="M128.3,34.8c0.1-0.1,0.2-0.1,0.3,0l2.6,1.5c0.1,0.1,0.2,0.2,0.2,0.3v3c0,0.1-0.1,0.2-0.2,0.3l-2.6,1.5
		c-0.1,0.1-0.2,0.1-0.3,0l-2.6-1.5c-0.1-0.1-0.2-0.2-0.2-0.3v-3c0-0.1,0.1-0.2,0.2-0.3L128.3,34.8z"/>
	<g>
		<defs>
			<path id="SVGID_1_" d="M52.8,21l-13.6,7.8c-0.5,0.3-0.8,0.8-0.8,1.4V46c0,0.6,0.3,1.1,0.8,1.4l13.6,7.9c0.5,0.3,1.1,0.3,1.6,0
				L68,47.4c0.5-0.3,0.8-0.8,0.8-1.4V30.3c0-0.6-0.3-1.1-0.8-1.4L54.4,21c-0.3-0.1-0.5-0.2-0.8-0.2S53,20.9,52.8,21"/>
		</defs>
		<use xlink:href="#SVGID_1_"  style="overflow:visible;fill:#F28E24;"/>
		<clipPath id="SVGID_2_">
			<use xlink:href="#SVGID_1_"  style="overflow:visible;"/>
		</clipPath>
		<g transform="translate(-78.306 -164.016)" class="st1">
			<path class="st0" d="M160.9,191.5l-38.3-18.8l-19.6,40.1l38.3,18.8L160.9,191.5z"/>
		</g>
	</g>
	<g>
		<defs>
			<path id="SVGID_3_" d="M38.7,47c0.1,0.2,0.3,0.3,0.5,0.4l11.7,6.7l1.9,1.1c0.3,0.2,0.6,0.2,0.9,0.2c0.1,0,0.2,0,0.3-0.1
				l14.3-26.3c-0.1-0.1-0.2-0.2-0.4-0.3l-8.9-5.1L54.4,21c-0.1-0.1-0.3-0.1-0.4-0.2L38.7,47z"/>
		</defs>
		<use xlink:href="#SVGID_3_"  style="overflow:visible;fill:#F28E24;"/>
		<clipPath id="SVGID_4_">
			<use xlink:href="#SVGID_3_"  style="overflow:visible;"/>
		</clipPath>
		<g transform="translate(-78.306 -164.016)" class="st2">
			<path class="st0" d="M100.4,197.1l27.1,36.6l35.8-26.4l-27.1-36.6L100.4,197.1z"/>
		</g>
	</g>
	<g>
		<defs>
			<path id="SVGID_5_" d="M53.4,20.8c-0.2,0-0.5,0.1-0.7,0.2l-13.6,7.8l14.6,26.6c0.2,0,0.4-0.1,0.6-0.2L68,47.4
				c0.4-0.2,0.7-0.7,0.8-1.1L53.9,20.8c-0.1,0-0.2,0-0.3,0C53.5,20.8,53.5,20.8,53.4,20.8"/>
		</defs>
		<use xlink:href="#SVGID_5_"  style="overflow:visible;fill:#F28E24;"/>
		<clipPath id="SVGID_6_">
			<use xlink:href="#SVGID_5_"  style="overflow:visible;"/>
		</clipPath>
		<g transform="translate(-78.306 -164.016)" class="st3">
			<path class="st0" d="M117.5,184.8v34.7h29.6v-34.7L117.5,184.8z"/>
		</g>
	</g>
</g>
</svg>
