<?xml version="1.0" encoding="utf-8"?>
<!-- Generator: Adobe Illustrator 22.1.0, SVG Export Plug-In . SVG Version: 6.00 Build 0)  -->
<svg version="1.1" id="Lager_1" xmlns="http://www.w3.org/2000/svg" xmlns:xlink="http://www.w3.org/1999/xlink" x="0px" y="0px"
	 viewBox="0 0 56.7 56.7" style="enable-background:new 0 0 56.7 56.7;" xml:space="preserve">
<style type="text/css">
	.st0{fill:#F28E24;}
</style>
<title>Ruby icon</title>
<path class="st0" d="M47.1,0.9c7,1.2,9,6,8.8,11l0-0.1L52.9,53L12,55.8h0c-3.4-0.1-11-0.5-11.3-11l3.8-6.9L11,53.1l1.2,2.7l6.5-21.1
	l-0.1,0l0-0.1l21.3,6.8l-3.2-12.5l-2.3-9l20.3-1.3l-1.4-1.2L38.7,5.6L47.1,0.9L47.1,0.9z M0.7,44.7L0.7,44.7L0.7,44.7L0.7,44.7z
	 M12.5,12.4c8.2-8.1,18.8-13,22.9-8.9c4.1,4.1-0.2,14.1-8.5,22.2C18.7,33.9,8.2,39,4.2,34.9C0.1,30.8,4.3,20.5,12.5,12.4
	C12.5,12.4,12.5,12.4,12.5,12.4z"/>
</svg>
