<?xml version="1.0" encoding="utf-8"?>
<!-- Generator: Adobe Illustrator 22.1.0, SVG Export Plug-In . SVG Version: 6.00 Build 0)  -->
<svg version="1.1" id="Lager_1" xmlns="http://www.w3.org/2000/svg" xmlns:xlink="http://www.w3.org/1999/xlink" x="0px" y="0px"
	 viewBox="0 0 59.9 56.7" style="enable-background:new 0 0 59.9 56.7;" xml:space="preserve">
<style type="text/css">
	.st0{fill:#F28E24;}
</style>
<title>Redux icon</title>
<path class="st0" d="M41.2,39.2c2.1-0.2,3.7-2,3.6-4.2c-0.1-2.2-1.9-4-4.1-4h-0.1c-2.3,0.1-4.1,2-4,4.3c0.1,1.2,0.5,2.1,1.2,2.8
	c-2.5,4.9-6.3,8.5-12.1,11.6c-3.9,2-8,2.8-11.9,2.2c-3.3-0.5-5.9-2-7.5-4.3C3.8,43.9,3.5,40,5.5,36.1c1.5-2.8,3.6-4.9,5.1-5.9
	c-0.4-0.9-0.8-2.5-1-3.7C-1.1,34.2,0,44.7,3.2,49.6c2.4,3.6,7.4,5.9,12.8,5.9c1.4,0,3-0.1,4.5-0.5C29.9,53.3,37,47.6,41.2,39.2
	L41.2,39.2z M54.1,30.2C48.5,23.6,40.2,20,30.8,20h-1.2c-0.6-1.3-2-2.2-3.6-2.2h-0.1c-2.3,0-4.1,2-4,4.2c0.1,2.2,1.9,4,4.1,4h0.2
	c1.6-0.1,3-1.1,3.6-2.5h1.3c5.6,0,10.9,1.6,15.7,4.8c3.7,2.4,6.3,5.6,7.8,9.4c1.3,3.1,1.2,6.2-0.1,8.7c-2.1,4-5.5,6.1-10.1,6.1
	c-2.9,0-5.7-0.9-7.2-1.6c-0.9,0.7-2.3,1.9-3.4,2.6c3.2,1.4,6.4,2.3,9.5,2.3c7.1,0,12.3-4,14.3-7.8C59.8,43.7,59.7,36.4,54.1,30.2
	C54.1,30.1,54.1,30.2,54.1,30.2z M16.7,40.5c0.1,2.2,1.9,4,4.1,4h0.1c2.3-0.1,4.1-2,4-4.3c0-2.2-1.9-4-4.1-4h-0.1
	c-0.1,0-0.4,0-0.5,0.1c-3-5.1-4.3-10.5-3.8-16.4c0.3-4.4,1.7-8.3,4.3-11.4c2.2-2.7,6.3-4.1,9.1-4.1c7.8-0.1,11.1,9.6,11.3,13.5
	l3.6,1.1C43.8,7.1,36.5,0.9,29.4,0.9c-6.6,0-12.7,4.8-15.2,11.9c-3.4,9.4-1.2,18.5,3,25.7C16.8,38.9,16.6,39.7,16.7,40.5z"/>
</svg>
