<?xml version="1.0" encoding="utf-8"?>
<!-- Generator: Adobe Illustrator 22.1.0, SVG Export Plug-In . SVG Version: 6.00 Build 0)  -->
<svg version="1.1" id="Lager_1" xmlns="http://www.w3.org/2000/svg" xmlns:xlink="http://www.w3.org/1999/xlink" x="0px" y="0px"
	 viewBox="0 0 63.3 56.7" style="enable-background:new 0 0 63.3 56.7;" xml:space="preserve">
<style type="text/css">
	.st0{fill:#F28E24;}
</style>
<title>React icon</title>
<path class="st0" d="M31.7,22.8c-3,0-5.5,2.5-5.5,5.5s2.5,5.5,5.5,5.5s5.5-2.5,5.5-5.5S34.7,22.8,31.7,22.8z M16.2,39.3L15,39
	C6,36.7,0.8,32.8,0.8,28.3S6,20,15,17.7l1.2-0.3l0.3,1.2c0.9,3.2,2.1,6.2,3.5,9.2l0.3,0.5l-0.3,0.5c-1.4,3-2.6,6.1-3.5,9.2
	C16.6,38.1,16.2,39.3,16.2,39.3z M14.5,20.5c-6.9,1.9-11.1,4.9-11.1,7.8c0,2.9,4.2,5.9,11.1,7.8c0.8-2.7,1.9-5.3,3-7.8
	C16.3,25.8,15.3,23.2,14.5,20.5z M47.1,39.3l-0.3-1.2c-0.9-3.2-2.1-6.2-3.5-9.2L43,28.3l0.3-0.5c1.4-3,2.6-6.1,3.5-9.2l0.3-1.2
	l1.2,0.3c9.1,2.3,14.3,6.2,14.3,10.7S57.4,36.7,48.3,39L47.1,39.3z M45.8,28.3c1.2,2.7,2.3,5.3,3,7.8c6.9-1.9,11.1-4.9,11.1-7.8
	c0-3-4.2-5.9-11.1-7.8C48.1,23.2,47,25.8,45.8,28.3z M14.5,20.5l-0.3-1.2c-2.5-9-1.8-15.4,2.1-17.7c3.8-2.2,10,0.4,16.4,7l0.9,0.9
	l-0.9,0.9c-2.3,2.4-4.4,4.9-6.2,7.6L26,18.5l-0.6,0.1c-3.3,0.3-6.5,0.8-9.7,1.6C15.7,20.2,14.5,20.5,14.5,20.5z M19.3,3.4
	c-0.7,0-1.3,0.1-1.8,0.4c-2.6,1.5-3,6.6-1.2,13.5c2.7-0.6,5.5-1,8.3-1.3c1.6-2.3,3.4-4.5,5.3-6.6C25.9,5.6,22.1,3.4,19.3,3.4z
	 M44,55.8C44,55.8,44,55.8,44,55.8c-3.7,0-8.4-2.8-13.3-7.8l-0.9-0.9l0.9-0.9c2.3-2.4,4.4-4.9,6.2-7.6l0.3-0.5l0.6-0.1
	c3.3-0.3,6.5-0.8,9.8-1.6l1.2-0.3l0.3,1.2c2.5,9,1.8,15.4-2.1,17.7C46.2,55.6,45.1,55.9,44,55.8z M33.5,47.1c4,3.9,7.8,6.1,10.5,6.1
	h0c0.7,0,1.3-0.1,1.8-0.4c2.6-1.5,3-6.6,1.2-13.5c-2.7,0.6-5.5,1-8.3,1.3C37.1,42.9,35.4,45.1,33.5,47.1z M48.9,20.5l-1.2-0.3
	c-3.2-0.8-6.5-1.3-9.8-1.6l-0.6-0.1L37,18.1c-1.9-2.7-4-5.3-6.2-7.6l-0.9-0.9l0.9-0.9c6.4-6.6,12.6-9.2,16.4-7
	c3.9,2.2,4.7,8.7,2.1,17.7C49.3,19.3,48.9,20.5,48.9,20.5z M38.8,16.1c2.9,0.3,5.7,0.7,8.3,1.3c1.8-6.9,1.3-12.1-1.2-13.5
	c-2.5-1.5-7.3,0.8-12.4,5.7C35.4,11.6,37.1,13.8,38.8,16.1z M19.3,55.8c-1.1,0-2.2-0.3-3.1-0.8c-3.9-2.2-4.7-8.7-2.1-17.7l0.3-1.2
	l1.2,0.3c3,0.7,6.3,1.3,9.7,1.6l0.6,0.1l0.3,0.5c1.9,2.7,4,5.3,6.2,7.6l0.9,0.9l-0.9,0.9C27.7,53.1,23,55.8,19.3,55.8z M16.3,39.3
	c-1.8,6.9-1.3,12.1,1.2,13.5c2.5,1.4,7.3-0.8,12.4-5.7c-1.9-2.1-3.7-4.3-5.3-6.6C21.8,40.3,19,39.9,16.3,39.3z M31.7,40.9
	c-2.1,0-4.3-0.1-6.5-0.3l-0.6-0.1l-0.3-0.5c-1.2-1.8-2.4-3.6-3.5-5.5c-1.1-1.9-2.1-3.8-3-5.7l-0.3-0.5l0.3-0.5c0.9-2,1.9-3.9,3-5.7
	c1.1-1.8,2.2-3.7,3.5-5.5l0.3-0.5l0.6-0.1c4.3-0.4,8.6-0.4,13,0l0.6,0.1l0.3,0.5c2.5,3.5,4.6,7.3,6.5,11.2l0.3,0.5l-0.3,0.5
	c-1.8,3.9-4,7.7-6.5,11.2l-0.3,0.5l-0.6,0.1C36,40.8,33.8,40.9,31.7,40.9z M26,38.1c3.8,0.3,7.5,0.3,11.3,0c2.1-3.1,4-6.4,5.7-9.8
	c-1.6-3.4-3.5-6.7-5.7-9.8c-3.8-0.3-7.5-0.3-11.3,0c-2.1,3.1-4,6.4-5.7,9.8C22,31.7,23.9,35,26,38.1z"/>
</svg>
