<?xml version="1.0" encoding="utf-8"?>
<!-- Generator: Adobe Illustrator 22.1.0, SVG Export Plug-In . SVG Version: 6.00 Build 0)  -->
<svg version="1.1" id="Lager_1" xmlns="http://www.w3.org/2000/svg" xmlns:xlink="http://www.w3.org/1999/xlink" x="0px" y="0px"
	 viewBox="0 0 149 56.7" style="enable-background:new 0 0 149 56.7;" xml:space="preserve">
<style type="text/css">
	.st0{fill:#F28E24;}
</style>
<title>Rails icon</title>
<path class="st0" d="M128.8,48.7v7.2H141c2.5,0,6.8-1.9,6.9-7.3v-2.8c0-4.6-3.6-7.3-6.9-7.3H135v-3.3h12v-7.2h-11.5
	c-3,0-7,2.6-7,7.5v2.5c0,4.9,3.9,7.3,7,7.3c8.4,0-2,0,5.7,0v3.5C141.2,48.7,128.8,48.7,128.8,48.7z M63.6,47c0,0,6.5-0.6,6.5-9.5
	s-7.9-9.8-7.9-9.8H48v28.2h7.2v-6.8l6.2,6.8h10.6C71.9,55.9,63.6,47,63.6,47z M60.8,41.2h-5.7v-6.4h5.7c0,0,1.6,0.6,1.6,3.2
	C62.5,40.6,60.8,41.2,60.8,41.2z M87.8,27.9h-7.3c-5.2,0-6.9,5-6.9,7.3v20.6h7.3v-4.9h6.8v4.9h7V35.3C94.7,29.3,89.6,27.9,87.8,27.9
	z M87.7,43h-6.9v-6.8c0,0,0-1.5,2.3-1.5h2.5c2,0,2,1.5,2,1.5L87.7,43C87.6,43,87.7,43,87.7,43z M98,27.9h7.6v28H98V27.9z
	 M116.2,48.7V27.9h-7.5v28h17.7v-7.2C126.3,48.7,116.2,48.7,116.2,48.7z M3.1,55.9h29.4c0,0-5.6-27.2,13-38.2
	c4.1-2.1,17-9.9,38.1,6.7c0.7-0.6,1.3-1.1,1.3-1.1S65.6,2.7,44,5c-10.8,1-24.2,11.5-32,25.3S3.1,55.9,3.1,55.9z M3.1,55.9h29.4
	c0,0-5.6-27.2,13-38.2c4.1-2.1,17-9.9,38.1,6.7c0.7-0.6,1.3-1.1,1.3-1.1S65.6,2.7,44,5c-10.8,1-24.2,11.5-32,25.3S3.1,55.9,3.1,55.9
	z M3.1,55.9h29.4c0,0-5.6-27.2,13-38.2c4.1-2.1,17-9.9,38.1,6.7c0.7-0.6,1.3-1.1,1.3-1.1S65.6,2.7,44,5c-10.9,1-24.2,11.5-32,25.3
	S3.1,55.9,3.1,55.9z M64.4,7.3l0.1-2.6c-0.3-0.2-1.3-0.7-3.6-1.4l-0.1,2.6C62,6.3,63.2,6.7,64.4,7.3z M60.9,15.6l-0.1,2.5
	c1.2,0,2.5,0.2,3.7,0.5l0.1-2.4C63.3,15.9,62.1,15.7,60.9,15.6z M47.1,3.3h0.4l-0.7-2.4c-1.2,0-2.3,0.1-3.6,0.2l0.7,2.3
	C44.9,3.3,46,3.3,47.1,3.3z M48.9,17.8l0.9,2.7c1.1-0.6,2.2-1,3.2-1.4l-0.8-2.6C50.9,17,49.8,17.4,48.9,17.8z M32,7.4l-1.7-2.7
	c-0.9,0.5-1.9,1.1-2.9,1.7l1.7,2.8C30.1,8.6,31,8,32,7.4z M39.6,25.2l1.8,2.8c0.6-1,1.4-1.9,2.2-2.8l-1.7-2.7
	C41.1,23.4,40.3,24.3,39.6,25.2z M34.2,37.9l3,2.5c0.1-1.5,0.4-3.1,0.8-4.6l-2.7-2.3C34.8,35.1,34.5,36.5,34.2,37.9z M17.9,19.2
	l-2.6-2.4c-1,1-1.9,2-2.8,3l2.9,2.6C16.1,21.2,17,20.2,17.9,19.2z M6.6,36.8l-4.3-1.7c-0.7,1.7-1.5,3.7-1.9,4.7l4.3,1.7
	C5.3,40.2,6,38.3,6.6,36.8z M33.6,48c0.1,2.1,0.3,3.8,0.4,5l4.5,1.7c-0.3-1.5-0.7-3.3-0.9-5.1C37.7,49.5,33.6,48,33.6,48z"/>
</svg>
